<svg xmlns="http://www.w3.org/2000/svg" xmlns:xlink="http://www.w3.org/1999/xlink" height="300" width="300"><polygon points="0,200 0,100 1,101 2,100 3,99 4,100 5,101 6,102 7,103 8,102 9,103 10,104 11,105 12,106 13,105 14,106 15,105 16,104 17,105 18,106 19,105 20,104 21,103 22,102 23,101 24,100 25,101 26,102 27,103 28,102 29,103 30,104 31,103 32,102 33,101 34,100 35,99 36,98 37,99 38,100 39,99 40,98 41,99 42,98 43,99 44,98 45,97 46,96 47,97 48,96 49,95 50,96 51,95 52,96 53,97 54,96 55,97 56,96 57,97 58,96 59,95 60,94 61,93 62,92 63,91 64,90 65,89 66,88 67,89 68,90 69,91 70,90 71,89 72,90 73,91 74,90 75,91 76,92 77,93 78,94 79,93 80,92 81,91 82,90 83,91 84,90 85,89 86,88 87,87 88,88 89,89 90,88 91,89 92,90 93,89 94,88 95,89 96,88 97,89 98,90 99,89 100,90 101,91 102,90 103,89 104,90 105,91 106,92 107,93 108,94 109,93 110,94 111,93 112,92 113,93 114,92 115,93 116,94 117,95 118,96 119,97 120,98 121,97 122,98 123,99 124,98 125,97 126,98 127,99 128,98 129,99 130,100 131,101 132,100 133,99 134,100 135,101 136,102 137,103 138,104 139,103 140,102 141,103 142,104 143,103 144,102 145,101 146,102 147,101 148,102 149,103 150,102 151,101 152,100 153,101 154,102 155,103 156,102 157,103 158,104 159,103 160,102 161,103 162,102 163,101 164,100 165,101 166,100 167,101 168,100 169,99 170,100 171,101 172,100 173,101 174,102 175,101 176,100 177,101 178,100 179,99 180,100 181,101 182,102 183,101 184,100 185,101 186,100 187,101 188,100 189,101 190,102 191,101 192,102 193,103 194,104 195,103 196,102 197,101 198,102 199,101 200,100 201,101 202,102 203,101 204,100 205,99 206,100 207,101 208,102 209,103 210,102 211,103 212,104 213,105 214,104 215,103 216,104 217,105 218,104 219,105 220,104 221,103 222,102 223,103 224,104 225,103 226,104 227,103 228,104 229,105 230,106 231,105 232,106 233,105 234,104 235,105 236,106 237,105 238,104 239,103 240,102 241,101 242,102 243,101 244,100 245,99 246,98 247,97 248,96 249,95 250,96 251,95 252,96 253,97 254,96 255,97 256,96 257,97 258,98 259,97 260,98 261,99 262,98 263,99 264,98 265,97 266,96 267,97 268,98 269,99 270,98 271,99 272,100 273,99 274,100 275,101 276,102 277,103 278,102 279,103 280,104 281,103 282,104 283,103 284,102 285,101 286,102 287,103 288,102 289,101 290,102 291,101 292,100 293,101 294,100 295,101 296,100 297,101 298,100 299,101 300,100 301,101 302,102 303,101 304,100 305,99 306,100 307,101 308,100 309,99 310,98 311,97 312,98 313,99 314,100 315,101 316,102 317,101 318,102 319,101 320,102 321,103 322,104 323,105 324,106 325,107 326,108 327,107 328,108 329,109 330,110 331,111 332,112 333,111 334,112 335,113 336,112 337,113 338,112 339,111 340,112 341,113 342,112 343,113 344,112 345,111 346,110 347,111 348,110 349,109 350,108 351,107 352,108 353,109 354,110 355,109 356,108 357,109 358,110 359,111 360,112 361,113 362,112 363,111 364,112 365,113 366,112 367,113 368,112 369,111 370,110 371,109 372,108 373,107 374,108 375,107 376,106 377,107 378,106 379,105 380,104 381,103 382,102 383,103 384,104 385,105 386,104 387,105 388,104 389,103 390,102 391,103 392,104 393,103 394,102 395,101 396,102 397,101 398,100 399,101 400,200 " style="fill:rgb(129,223,179);stroke:rgb(29,123,79)"></polygon><polygon points="0,200 0,100 1,99 2,98 3,97 4,96 5,97 6,98 7,97 8,96 9,97 10,96 11,95 12,94 13,93 14,94 15,95 16,94 17,93 18,94 19,95 20,94 21,93 22,92 23,91 24,92 25,91 26,92 27,91 28,92 29,93 30,92 31,91 32,92 33,91 34,90 35,91 36,92 37,93 38,94 39,93 40,92 41,93 42,94 43,93 44,92 45,91 46,92 47,91 48,90 49,89 50,88 51,87 52,88 53,89 54,90 55,89 56,90 57,91 58,92 59,91 60,90 61,91 62,92 63,93 64,92 65,91 66,92 67,91 68,92 69,91 70,92 71,91 72,90 73,89 74,88 75,87 76,88 77,89 78,88 79,87 80,86 81,85 82,84 83,85 84,84 85,85 86,84 87,85 88,84 89,85 90,86 91,87 92,86 93,85 94,86 95,87 96,88 97,89 98,90 99,89 100,88 101,89 102,90 103,91 104,92 105,91 106,92 107,93 108,94 109,93 110,94 111,95 112,94 113,95 114,96 115,97 116,98 117,99 118,98 119,97 120,96 121,95 122,96 123,95 124,96 125,95 126,96 127,97 128,96 129,97 130,96 131,95 132,94 133,93 134,94 135,93 136,92 137,93 138,92 139,91 140,92 141,93 142,92 143,93 144,92 145,91 146,92 147,93 148,94 149,93 150,92 151,93 152,92 153,93 154,92 155,93 156,92 157,93 158,94 159,95 160,94 161,93 162,94 163,93 164,94 165,93 166,92 167,93 168,94 169,93 170,92 171,93 172,94 173,95 174,96 175,95 176,96 177,97 178,98 179,99 180,100 181,99 182,100 183,99 184,98 185,97 186,96 187,95 188,94 189,95 190,94 191,95 192,96 193,95 194,94 195,93 196,92 197,93 198,94 199,93 200,92 201,93 202,92 203,91 204,90 205,91 206,92 207,91 208,90 209,89 210,88 211,87 212,88 213,89 214,88 215,87 216,86 217,87 218,88 219,87 220,86 221,87 222,88 223,87 224,88 225,89 226,88 227,89 228,90 229,91 230,92 231,91 232,90 233,91 234,90 235,89 236,90 237,91 238,92 239,93 240,94 241,93 242,92 243,93 244,94 245,93 246,92 247,93 248,94 249,95 250,94 251,93 252,92 253,93 254,92 255,93 256,92 257,93 258,94 259,93 260,94 261,93 262,92 263,91 264,90 265,91 266,90 267,89 268,88 269,89 270,90 271,89 272,88 273,87 274,88 275,87 276,86 277,85 278,86 279,87 280,86 281,87 282,86 283,85 284,84 285,85 286,86 287,85 288,84 289,85 290,86 291,87 292,88 293,87 294,86 295,85 296,84 297,85 298,86 299,85 300,86 301,85 302,86 303,87 304,86 305,85 306,84 307,85 308,86 309,87 310,86 311,85 312,86 313,87 314,86 315,85 316,84 317,83 318,82 319,83 320,84 321,85 322,84 323,83 324,84 325,85 326,84 327,83 328,82 329,83 330,84 331,85 332,86 333,85 334,84 335,83 336,82 337,81 338,80 339,79 340,78 341,79 342,80 343,79 344,78 345,79 346,78 347,77 348,78 349,79 350,78 351,79 352,78 353,79 354,78 355,77 356,78 357,77 358,76 359,77 360,78 361,77 362,76 363,77 364,78 365,77 366,78 367,77 368,76 369,77 370,78 371,77 372,78 373,79 374,78 375,79 376,78 377,77 378,76 379,77 380,76 381,75 382,74 383,73 384,74 385,73 386,74 387,73 388,74 389,75 390,76 391,75 392,76 393,75 394,74 395,73 396,74 397,75 398,74 399,73 400,200 " style="fill:rgb(218,251,28);stroke:rgb(118,151,0)"></polygon><polygon points="0,200 0,100 1,101 2,100 3,99 4,98 5,97 6,98 7,97 8,96 9,97 10,96 11,95 12,96 13,97 14,98 15,97 16,96 17,95 18,96 19,95 20,96 21,95 22,96 23,97 24,98 25,99 26,98 27,99 28,98 29,99 30,100 31,101 32,100 33,101 34,100 35,99 36,100 37,99 38,98 39,99 40,98 41,99 42,100 43,101 44,102 45,101 46,100 47,101 48,100 49,101 50,102 51,103 52,102 53,101 54,102 55,103 56,104 57,103 58,102 59,103 60,104 61,103 62,102 63,101 64,102 65,103 66,102 67,101 68,102 69,103 70,102 71,101 72,102 73,101 74,102 75,103 76,104 77,103 78,102 79,103 80,104 81,105 82,106 83,105 84,104 85,105 86,104 87,105 88,106 89,107 90,106 91,107 92,108 93,109 94,108 95,107 96,106 97,105 98,104 99,103 100,102 101,103 102,104 103,105 104,106 105,105 106,106 107,105 108,104 109,105 110,104 111,105 112,104 113,103 114,104 115,103 116,102 117,103 118,102 119,101 120,100 121,99 122,100 123,101 124,100 125,99 126,98 127,99 128,100 129,99 130,98 131,99 132,98 133,97 134,98 135,99 136,100 137,101 138,100 139,99 140,100 141,101 142,100 143,101 144,102 145,101 146,102 147,103 148,102 149,103 150,102 151,101 152,102 153,103 154,104 155,105 156,104 157,103 158,102 159,101 160,100 161,101 162,102 163,101 164,102 165,101 166,102 167,101 168,102 169,103 170,104 171,105 172,106 173,105 174,104 175,105 176,104 177,103 178,102 179,103 180,104 181,103 182,102 183,103 184,104 185,105 186,104 187,103 188,104 189,103 190,102 191,101 192,102 193,101 194,100 195,101 196,102 197,103 198,102 199,101 200,100 201,99 202,98 203,99 204,98 205,99 206,98 207,99 208,98 209,97 210,98 211,97 212,98 213,97 214,98 215,97 216,96 217,97 218,98 219,99 220,100 221,99 222,100 223,101 224,102 225,101 226,102 227,103 228,102 229,103 230,102 231,101 232,102 233,103 234,104 235,105 236,104 237,103 238,104 239,103 240,102 241,103 242,102 243,101 244,100 245,101 246,100 247,101 248,102 249,103 250,102 251,101 252,102 253,101 254,102 255,103 256,104 257,105 258,104 259,103 260,104 261,105 262,106 263,107 264,106 265,105 266,104 267,105 268,104 269,103 270,102 271,103 272,102 273,101 274,100 275,101 276,102 277,101 278,102 279,103 280,102 281,103 282,102 283,103 284,104 285,105 286,106 287,107 288,108 289,109 290,108 291,107 292,106 293,107 294,106 295,105 296,106 297,107 298,106 299,105 300,106 301,107 302,108 303,107 304,106 305,107 306,106 307,105 308,106 309,107 310,106 311,107 312,108 313,107 314,106 315,107 316,108 317,107 318,106 319,105 320,104 321,105 322,104 323,103 324,102 325,103 326,102 327,103 328,104 329,105 330,104 331,103 332,104 333,105 334,106 335,105 336,106 337,105 338,104 339,105 340,104 341,105 342,104 343,105 344,106 345,105 346,104 347,105 348,104 349,105 350,104 351,103 352,104 353,103 354,102 355,103 356,102 357,101 358,102 359,101 360,100 361,101 362,100 363,101 364,100 365,99 366,98 367,97 368,96 369,97 370,96 371,97 372,96 373,97 374,98 375,99 376,100 377,101 378,100 379,101 380,102 381,101 382,102 383,103 384,102 385,101 386,100 387,99 388,98 389,99 390,100 391,101 392,100 393,101 394,100 395,101 396,102 397,101 398,100 399,99 400,200 " style="fill:rgb(107,10,219);stroke:rgb(7,0,119)"></polygon><polygon points="0,200 0,100 1,99 2,100 3,101 4,100 5,101 6,102 7,103 8,104 9,103 10,102 11,101 12,102 13,103 14,104 15,105 16,104 17,103 18,102 19,101 20,102 21,103 22,102 23,103 24,102 25,101 26,102 27,103 28,102 29,101 30,102 31,103 32,104 33,105 34,106 35,105 36,106 37,105 38,104 39,103 40,102 41,101 42,100 43,99 44,98 45,97 46,98 47,97 48,96 49,95 50,94 51,93 52,94 53,95 54,96 55,95 56,94 57,93 58,92 59,93 60,92 61,91 62,92 63,91 64,92 65,93 66,92 67,91 68,90 69,89 70,88 71,89 72,88 73,89 74,88 75,87 76,86 77,85 78,84 79,85 80,86 81,87 82,88 83,89 84,90 85,89 86,88 87,89 88,88 89,87 90,88 91,87 92,88 93,87 94,86 95,87 96,86 97,85 98,84 99,85 100,86 101,87 102,86 103,85 104,84 105,85 106,84 107,85 108,86 109,85 110,84 111,83 112,84 113,83 114,84 115,83 116,82 117,83 118,84 119,85 120,84 121,83 122,84 123,85 124,84 125,83 126,84 127,85 128,84 129,85 130,86 131,85 132,86 133,85 134,86 135,85 136,86 137,85 138,86 139,85 140,84 141,83 142,82 143,81 144,82 145,81 146,82 147,83 148,82 149,83 150,82 151,81 152,80 153,79 154,78 155,77 156,76 157,75 158,74 159,75 160,76 161,77 162,78 163,79 164,78 165,77 166,78 167,79 168,80 169,79 170,78 171,77 172,76 173,77 174,76 175,75 176,76 177,77 178,76 179,75 180,76 181,75 182,74 183,73 184,74 185,75 186,74 187,73 188,74 189,75 190,76 191,77 192,78 193,77 194,76 195,77 196,78 197,79 198,78 199,79 200,78 201,79 202,80 203,81 204,82 205,81 206,80 207,79 208,80 209,81 210,80 211,79 212,78 213,77 214,76 215,77 216,76 217,75 218,76 219,77 220,78 221,77 222,78 223,79 224,78 225,77 226,76 227,77 228,78 229,79 230,80 231,79 232,80 233,79 234,78 235,79 236,78 237,79 238,80 239,79 240,78 241,79 242,80 243,79 244,78 245,77 246,76 247,77 248,78 249,79 250,80 251,81 252,82 253,83 254,82 255,83 256,82 257,81 258,80 259,81 260,82 261,81 262,82 263,81 264,82 265,83 266,82 267,83 268,84 269,83 270,82 271,83 272,84 273,85 274,86 275,85 276,84 277,83 278,84 279,83 280,84 281,83 282,82 283,83 284,84 285,83 286,82 287,81 288,80 289,81 290,82 291,83 292,82 293,81 294,80 295,81 296,80 297,79 298,78 299,77 300,76 301,77 302,78 303,77 304,76 305,75 306,74 307,73 308,74 309,75 310,76 311,77 312,78 313,77 314,78 315,77 316,76 317,75 318,76 319,77 320,76 321,75 322,76 323,75 324,76 325,77 326,76 327,75 328,74 329,73 330,72 331,71 332,70 333,71 334,70 335,71 336,72 337,71 338,70 339,71 340,70 341,69 342,68 343,67 344,68 345,67 346,66 347,67 348,66 349,67 350,68 351,67 352,68 353,67 354,66 355,65 356,66 357,65 358,64 359,63 360,64 361,63 362,62 363,63 364,62 365,63 366,62 367,61 368,62 369,63 370,62 371,61 372,60 373,61 374,60 375,61 376,62 377,61 378,60 379,59 380,60 381,59 382,58 383,57 384,56 385,55 386,56 387,57 388,56 389,57 390,56 391,57 392,58 393,57 394,58 395,57 396,56 397,57 398,56 399,55 400,200 " style="fill:rgb(173,108,185);stroke:rgb(73,8,85)"></polygon><polygon points="0,200 0,100 1,101 2,100 3,101 4,102 5,103 6,102 7,103 8,104 9,105 10,104 11,105 12,104 13,105 14,106 15,105 16,106 17,105 18,104 19,105 20,106 21,105 22,106 23,105 24,104 25,103 26,102 27,101 28,100 29,101 30,100 31,99 32,98 33,97 34,96 35,97 36,98 37,97 38,98 39,99 40,98 41,97 42,98 43,97 44,96 45,95 46,96 47,95 48,94 49,93 50,92 51,91 52,92 53,91 54,92 55,93 56,94 57,95 58,94 59,93 60,92 61,91 62,90 63,91 64,90 65,91 66,92 67,93 68,94 69,95 70,96 71,95 72,94 73,93 74,94 75,93 76,92 77,91 78,92 79,91 80,90 81,89 82,88 83,89 84,90 85,89 86,88 87,87 88,88 89,87 90,88 91,89 92,88 93,87 94,86 95,85 96,84 97,83 98,84 99,85 100,84 101,83 102,84 103,83 104,82 105,81 106,82 107,81 108,82 109,83 110,84 111,83 112,82 113,83 114,82 115,81 116,80 117,81 118,80 119,79 120,80 121,81 122,82 123,81 124,82 125,83 126,82 127,83 128,82 129,81 130,80 131,81 132,80 133,79 134,78 135,79 136,78 137,77 138,76 139,75 140,76 141,75 142,76 143,75 144,74 145,73 146,72 147,71 148,72 149,73 150,74 151,73 152,72 153,71 154,70 155,71 156,70 157,69 158,70 159,71 160,72 161,71 162,70 163,69 164,70 165,69 166,70 167,69 168,70 169,71 170,70 171,69 172,68 173,67 174,66 175,67 176,68 177,69 178,70 179,69 180,68 181,67 182,68 183,67 184,66 185,65 186,64 187,63 188,64 189,63 190,62 191,61 192,62 193,61 194,62 195,63 196,62 197,61 198,62 199,63 200,64 201,65 202,66 203,67 204,66 205,65 206,66 207,67 208,66 209,65 210,64 211,63 212,64 213,65 214,66 215,65 216,66 217,65 218,64 219,63 220,62 221,63 222,64 223,63 224,62 225,63 226,62 227,61 228,60 229,59 230,60 231,61 232,60 233,61 234,60 235,61 236,62 237,63 238,62 239,61 240,62 241,61 242,62 243,61 244,62 245,63 246,64 247,65 248,64 249,63 250,62 251,61 252,60 253,61 254,60 255,59 256,60 257,61 258,62 259,61 260,60 261,59 262,58 263,57 264,56 265,55 266,54 267,53 268,54 269,53 270,54 271,53 272,52 273,51 274,52 275,53 276,54 277,53 278,54 279,53 280,54 281,53 282,54 283,53 284,52 285,51 286,52 287,53 288,54 289,53 290,54 291,55 292,54 293,55 294,54 295,53 296,54 297,55 298,56 299,55 300,56 301,55 302,56 303,57 304,56 305,55 306,54 307,53 308,54 309,53 310,52 311,53 312,54 313,55 314,56 315,57 316,56 317,55 318,56 319,57 320,56 321,55 322,56 323,57 324,56 325,55 326,56 327,57 328,58 329,59 330,60 331,61 332,62 333,63 334,64 335,65 336,66 337,65 338,64 339,65 340,66 341,65 342,66 343,65 344,66 345,65 346,64 347,65 348,64 349,65 350,66 351,65 352,64 353,65 354,66 355,65 356,64 357,65 358,64 359,65 360,66 361,67 362,68 363,69 364,68 365,69 366,70 367,71 368,72 369,73 370,72 371,71 372,70 373,71 374,70 375,69 376,70 377,71 378,70 379,69 380,70 381,69 382,68 383,67 384,68 385,69 386,70 387,69 388,70 389,71 390,70 391,69 392,70 393,71 394,70 395,71 396,70 397,71 398,72 399,71 400,200 " style="fill:rgb(4,165,182);stroke:rgb(0,65,82)"></polygon><polygon points="0,200 0,100 1,99 2,100 3,99 4,98 5,99 6,98 7,99 8,100 9,99 10,100 11,99 12,100 13,101 14,102 15,101 16,102 17,101 18,100 19,101 20,102 21,101 22,100 23,101 24,102 25,103 26,104 27,103 28,102 29,101 30,102 31,101 32,100 33,101 34,100 35,99 36,98 37,97 38,96 39,97 40,98 41,99 42,98 43,99 44,100 45,99 46,100 47,99 48,98 49,99 50,98 51,99 52,98 53,97 54,98 55,99 56,98 57,99 58,98 59,99 60,100 61,101 62,100 63,99 64,98 65,99 66,100 67,101 68,100 69,101 70,100 71,101 72,100 73,99 74,98 75,97 76,98 77,99 78,100 79,99 80,100 81,99 82,100 83,101 84,100 85,101 86,100 87,101 88,102 89,101 90,102 91,101 92,100 93,99 94,100 95,99 96,98 97,97 98,98 99,97 100,98 101,97 102,96 103,97 104,96 105,95 106,94 107,95 108,96 109,95 110,94 111,95 112,96 113,95 114,96 115,97 116,98 117,99 118,100 119,99 120,98 121,97 122,96 123,97 124,98 125,99 126,100 127,101 128,102 129,101 130,100 131,99 132,98 133,99 134,98 135,97 136,96 137,95 138,94 139,95 140,96 141,97 142,98 143,97 144,96 145,95 146,94 147,93 148,94 149,93 150,92 151,91 152,92 153,91 154,92 155,93 156,94 157,95 158,96 159,97 160,98 161,97 162,96 163,97 164,98 165,99 166,100 167,99 168,100 169,99 170,98 171,97 172,96 173,97 174,96 175,95 176,94 177,93 178,94 179,95 180,94 181,93 182,92 183,93 184,92 185,91 186,90 187,91 188,92 189,93 190,92 191,93 192,94 193,95 194,94 195,93 196,92 197,93 198,92 199,93 200,92 201,91 202,92 203,91 204,92 205,93 206,92 207,91 208,90 209,91 210,90 211,89 212,88 213,87 214,86 215,85 216,84 217,85 218,84 219,85 220,86 221,87 222,86 223,87 224,86 225,87 226,88 227,89 228,88 229,89 230,90 231,91 232,90 233,91 234,90 235,91 236,90 237,91 238,92 239,93 240,94 241,95 242,94 243,95 244,96 245,95 246,94 247,93 248,92 249,93 250,92 251,93 252,94 253,95 254,96 255,97 256,98 257,97 258,98 259,97 260,96 261,97 262,96 263,95 264,94 265,93 266,94 267,95 268,94 269,95 270,96 271,97 272,96 273,95 274,96 275,97 276,96 277,95 278,96 279,97 280,98 281,97 282,98 283,97 284,96 285,95 286,94 287,93 288,94 289,95 290,94 291,93 292,92 293,91 294,90 295,89 296,90 297,91 298,92 299,91 300,92 301,91 302,90 303,89 304,90 305,89 306,90 307,91 308,92 309,93 310,92 311,93 312,94 313,93 314,94 315,95 316,94 317,93 318,92 319,93 320,94 321,93 322,94 323,93 324,92 325,93 326,92 327,91 328,92 329,91 330,90 331,91 332,92 333,93 334,92 335,93 336,92 337,93 338,92 339,93 340,94 341,93 342,94 343,95 344,94 345,95 346,94 347,93 348,94 349,95 350,96 351,95 352,94 353,93 354,92 355,91 356,92 357,91 358,90 359,89 360,90 361,89 362,88 363,87 364,88 365,87 366,88 367,87 368,88 369,89 370,88 371,89 372,88 373,89 374,88 375,87 376,88 377,89 378,90 379,89 380,90 381,91 382,92 383,91 384,90 385,89 386,88 387,89 388,88 389,89 390,90 391,91 392,92 393,91 394,90 395,89 396,88 397,89 398,88 399,87 400,200 " style="fill:rgb(27,141,32);stroke:rgb(0,41,0)"></polygon><polygon points="0,200 0,100 1,99 2,100 3,99 4,98 5,97 6,98 7,97 8,98 9,97 10,96 11,97 12,98 13,99 14,98 15,97 16,96 17,97 18,98 19,99 20,100 21,101 22,100 23,101 24,100 25,99 26,100 27,101 28,100 29,101 30,102 31,101 32,102 33,103 34,104 35,105 36,106 37,105 38,106 39,105 40,106 41,105 42,104 43,105 44,106 45,105 46,104 47,103 48,104 49,103 50,104 51,103 52,102 53,101 54,100 55,101 56,100 57,101 58,102 59,101 60,100 61,101 62,102 63,103 64,102 65,103 66,104 67,105 68,104 69,105 70,104 71,103 72,104 73,103 74,102 75,101 76,102 77,101 78,102 79,101 80,100 81,99 82,100 83,101 84,100 85,101 86,102 87,101 88,100 89,101 90,102 91,101 92,100 93,99 94,98 95,97 96,98 97,97 98,98 99,97 100,96 101,97 102,96 103,95 104,94 105,95 106,94 107,95 108,94 109,95 110,96 111,97 112,98 113,97 114,98 115,99 116,100 117,99 118,98 119,97 120,96 121,95 122,94 123,93 124,94 125,93 126,94 127,93 128,94 129,95 130,96 131,95 132,96 133,95 134,96 135,95 136,94 137,95 138,96 139,95 140,94 141,95 142,96 143,95 144,96 145,95 146,94 147,93 148,94 149,95 150,96 151,97 152,98 153,97 154,96 155,95 156,96 157,97 158,96 159,95 160,94 161,93 162,92 163,93 164,94 165,93 166,94 167,95 168,96 169,95 170,94 171,95 172,96 173,97 174,96 175,97 176,98 177,97 178,96 179,95 180,96 181,97 182,96 183,97 184,96 185,95 186,96 187,97 188,96 189,97 190,96 191,95 192,94 193,93 194,94 195,93 196,94 197,95 198,94 199,95 200,94 201,95 202,96 203,97 204,98 205,97 206,98 207,97 208,98 209,99 210,98 211,97 212,98 213,99 214,98 215,99 216,98 217,97 218,96 219,97 220,96 221,95 222,96 223,97 224,98 225,99 226,98 227,99 228,98 229,97 230,96 231,95 232,94 233,93 234,92 235,93 236,92 237,91 238,92 239,91 240,90 241,89 242,90 243,91 244,90 245,91 246,90 247,91 248,92 249,91 250,90 251,89 252,90 253,89 254,90 255,89 256,90 257,91 258,90 259,91 260,90 261,91 262,90 263,89 264,90 265,89 266,88 267,89 268,88 269,89 270,90 271,89 272,88 273,89 274,88 275,89 276,88 277,89 278,88 279,89 280,90 281,91 282,92 283,91 284,92 285,91 286,92 287,93 288,92 289,91 290,92 291,91 292,92 293,93 294,92 295,93 296,94 297,93 298,94 299,95 300,94 301,93 302,92 303,91 304,92 305,91 306,90 307,89 308,90 309,89 310,90 311,89 312,90 313,89 314,90 315,91 316,92 317,91 318,90 319,89 320,90 321,89 322,90 323,89 324,88 325,89 326,90 327,91 328,92 329,91 330,92 331,91 332,90 333,91 334,90 335,89 336,88 337,87 338,86 339,87 340,86 341,87 342,88 343,89 344,90 345,91 346,92 347,93 348,94 349,93 350,94 351,95 352,96 353,97 354,96 355,97 356,96 357,97 358,96 359,97 360,96 361,95 362,94 363,93 364,92 365,93 366,94 367,95 368,94 369,93 370,94 371,95 372,94 373,93 374,92 375,91 376,90 377,91 378,90 379,91 380,90 381,91 382,90 383,91 384,90 385,89 386,88 387,89 388,90 389,91 390,92 391,93 392,94 393,95 394,94 395,95 396,96 397,97 398,96 399,95 400,200 " style="fill:rgb(42,199,248);stroke:rgb(0,99,148)"></polygon><polygon points="0,200 0,100 1,99 2,98 3,99 4,100 5,99 6,98 7,99 8,100 9,101 10,100 11,101 12,102 13,101 14,102 15,103 16,102 17,103 18,102 19,101 20,100 21,101 22,102 23,103 24,104 25,103 26,104 27,105 28,106 29,105 30,104 31,103 32,102 33,101 34,102 35,103 36,104 37,105 38,104 39,105 40,106 41,105 42,106 43,105 44,106 45,105 46,106 47,105 48,106 49,107 50,106 51,107 52,108 53,109 54,110 55,109 56,108 57,109 58,110 59,111 60,110 61,109 62,110 63,111 64,110 65,109 66,110 67,109 68,110 69,111 70,110 71,111 72,110 73,111 74,112 75,111 76,110 77,109 78,108 79,109 80,108 81,107 82,108 83,109 84,108 85,107 86,106 87,107 88,106 89,105 90,104 91,105 92,104 93,103 94,102 95,103 96,104 97,103 98,104 99,103 100,104 101,103 102,104 103,103 104,104 105,105 106,104 107,103 108,104 109,105 110,104 111,103 112,102 113,101 114,102 115,103 116,104 117,103 118,104 119,105 120,104 121,103 122,104 123,105 124,104 125,105 126,106 127,105 128,106 129,107 130,106 131,105 132,104 133,103 134,102 135,101 136,100 137,101 138,100 139,99 140,100 141,99 142,100 143,99 144,98 145,99 146,98 147,99 148,100 149,99 150,100 151,101 152,102 153,101 154,100 155,101 156,100 157,99 158,98 159,97 160,96 161,95 162,94 163,95 164,94 165,93 166,92 167,91 168,90 169,91 170,92 171,91 172,92 173,93 174,94 175,93 176,92 177,91 178,90 179,89 180,88 181,87 182,88 183,89 184,90 185,89 186,90 187,89 188,88 189,89 190,88 191,87 192,88 193,89 194,90 195,91 196,92 197,91 198,90 199,89 200,90 201,91 202,92 203,93 204,92 205,91 206,90 207,89 208,88 209,87 210,86 211,87 212,86 213,85 214,84 215,85 216,84 217,85 218,86 219,87 220,88 221,89 222,88 223,89 224,90 225,91 226,90 227,89 228,88 229,89 230,90 231,89 232,90 233,91 234,90 235,89 236,88 237,87 238,88 239,89 240,88 241,89 242,88 243,87 244,88 245,89 246,88 247,87 248,88 249,89 250,90 251,89 252,88 253,87 254,86 255,87 256,86 257,87 258,86 259,87 260,86 261,85 262,86 263,87 264,88 265,87 266,88 267,89 268,88 269,87 270,86 271,85 272,86 273,87 274,88 275,89 276,90 277,89 278,90 279,89 280,88 281,87 282,88 283,89 284,90 285,89 286,88 287,87 288,86 289,87 290,88 291,89 292,90 293,91 294,92 295,91 296,90 297,91 298,90 299,91 300,90 301,89 302,88 303,89 304,88 305,89 306,88 307,87 308,86 309,87 310,86 311,87 312,86 313,87 314,88 315,89 316,88 317,87 318,88 319,89 320,90 321,91 322,92 323,91 324,92 325,91 326,92 327,93 328,94 329,95 330,94 331,93 332,94 333,93 334,94 335,93 336,94 337,93 338,94 339,93 340,94 341,93 342,94 343,95 344,94 345,95 346,94 347,93 348,92 349,93 350,92 351,93 352,94 353,95 354,96 355,95 356,96 357,97 358,98 359,97 360,96 361,95 362,96 363,95 364,96 365,97 366,98 367,99 368,100 369,99 370,98 371,97 372,96 373,95 374,96 375,95 376,94 377,95 378,94 379,93 380,92 381,91 382,92 383,91 384,90 385,89 386,88 387,87 388,86 389,87 390,86 391,85 392,86 393,85 394,86 395,87 396,86 397,85 398,84 399,85 400,200 " style="fill:rgb(237,119,248);stroke:rgb(137,19,148)"></polygon><polygon points="0,200 0,100 1,99 2,98 3,99 4,98 5,97 6,98 7,97 8,98 9,97 10,98 11,97 12,96 13,95 14,96 15,97 16,98 17,99 18,100 19,101 20,100 21,99 22,98 23,99 24,100 25,99 26,100 27,99 28,100 29,101 30,100 31,101 32,102 33,101 34,100 35,101 36,100 37,101 38,102 39,103 40,104 41,103 42,102 43,101 44,100 45,99 46,98 47,99 48,100 49,99 50,98 51,97 52,96 53,95 54,94 55,93 56,92 57,93 58,92 59,93 60,94 61,95 62,94 63,95 64,94 65,93 66,92 67,93 68,92 69,91 70,92 71,91 72,90 73,91 74,92 75,91 76,90 77,91 78,90 79,91 80,90 81,91 82,90 83,89 84,90 85,89 86,90 87,91 88,92 89,93 90,92 91,91 92,90 93,89 94,90 95,89 96,90 97,89 98,90 99,89 100,90 101,91 102,90 103,89 104,90 105,89 106,90 107,89 108,90 109,91 110,90 111,89 112,90 113,89 114,90 115,91 116,92 117,91 118,90 119,89 120,88 121,89 122,90 123,91 124,90 125,89 126,90 127,89 128,88 129,89 130,88 131,87 132,86 133,85 134,86 135,85 136,86 137,87 138,88 139,87 140,86 141,87 142,86 143,85 144,86 145,85 146,84 147,85 148,84 149,85 150,86 151,87 152,88 153,89 154,88 155,89 156,90 157,91 158,92 159,93 160,94 161,95 162,96 163,95 164,96 165,95 166,94 167,95 168,94 169,93 170,94 171,95 172,96 173,97 174,96 175,95 176,94 177,93 178,94 179,95 180,96 181,97 182,96 183,95 184,96 185,95 186,94 187,93 188,94 189,95 190,94 191,93 192,94 193,95 194,94 195,95 196,94 197,95 198,96 199,97 200,96 201,95 202,94 203,93 204,92 205,93 206,92 207,91 208,90 209,89 210,90 211,89 212,90 213,89 214,88 215,87 216,88 217,87 218,86 219,85 220,84 221,83 222,82 223,83 224,84 225,83 226,82 227,81 228,80 229,79 230,80 231,79 232,78 233,79 234,78 235,79 236,78 237,77 238,78 239,77 240,76 241,75 242,74 243,75 244,74 245,75 246,76 247,75 248,76 249,77 250,78 251,79 252,78 253,77 254,78 255,79 256,78 257,79 258,78 259,77 260,78 261,77 262,78 263,79 264,78 265,77 266,78 267,77 268,76 269,77 270,76 271,77 272,78 273,79 274,78 275,79 276,78 277,79 278,78 279,77 280,76 281,75 282,74 283,75 284,74 285,73 286,72 287,71 288,70 289,71 290,70 291,69 292,70 293,69 294,70 295,71 296,72 297,71 298,72 299,71 300,70 301,69 302,70 303,69 304,70 305,69 306,70 307,71 308,70 309,71 310,70 311,71 312,70 313,69 314,68 315,67 316,66 317,65 318,64 319,65 320,66 321,67 322,66 323,67 324,66 325,67 326,66 327,65 328,64 329,65 330,64 331,63 332,62 333,63 334,64 335,65 336,64 337,65 338,66 339,65 340,66 341,67 342,66 343,67 344,68 345,67 346,68 347,69 348,70 349,71 350,72 351,73 352,72 353,73 354,74 355,75 356,74 357,73 358,72 359,71 360,72 361,73 362,72 363,71 364,72 365,73 366,74 367,73 368,74 369,73 370,72 371,71 372,70 373,71 374,72 375,71 376,70 377,69 378,70 379,69 380,70 381,71 382,72 383,73 384,74 385,73 386,72 387,71 388,72 389,71 390,72 391,71 392,70 393,71 394,70 395,69 396,68 397,69 398,70 399,69 400,200 " style="fill:rgb(206,15,68);stroke:rgb(106,0,0)"></polygon><polygon points="0,200 0,100 1,99 2,100 3,99 4,98 5,97 6,96 7,97 8,96 9,95 10,94 11,95 12,94 13,95 14,96 15,97 16,98 17,97 18,98 19,97 20,98 21,97 22,96 23,95 24,96 25,97 26,98 27,99 28,98 29,97 30,96 31,95 32,94 33,93 34,92 35,91 36,92 37,91 38,90 39,89 40,90 41,91 42,90 43,89 44,90 45,89 46,88 47,89 48,88 49,89 50,90 51,89 52,90 53,89 54,88 55,87 56,86 57,85 58,86 59,87 60,86 61,85 62,84 63,83 64,82 65,83 66,84 67,85 68,86 69,85 70,86 71,85 72,86 73,87 74,88 75,87 76,86 77,85 78,86 79,85 80,84 81,85 82,86 83,87 84,86 85,85 86,86 87,87 88,88 89,87 90,86 91,85 92,84 93,83 94,84 95,83 96,84 97,85 98,84 99,85 100,86 101,85 102,84 103,85 104,84 105,85 106,86 107,87 108,86 109,87 110,88 111,87 112,86 113,87 114,86 115,87 116,88 117,87 118,88 119,87 120,86 121,85 122,86 123,87 124,88 125,89 126,90 127,89 128,88 129,89 130,88 131,89 132,90 133,89 134,90 135,89 136,88 137,89 138,90 139,89 140,88 141,89 142,90 143,89 144,88 145,89 146,88 147,87 148,86 149,85 150,84 151,85 152,84 153,83 154,82 155,81 156,80 157,81 158,80 159,79 160,80 161,81 162,82 163,83 164,84 165,85 166,86 167,87 168,88 169,89 170,90 171,91 172,90 173,89 174,90 175,91 176,90 177,91 178,92 179,91 180,90 181,91 182,90 183,91 184,90 185,89 186,90 187,89 188,90 189,89 190,90 191,89 192,90 193,91 194,92 195,91 196,90 197,89 198,90 199,91 200,90 201,91 202,90 203,91 204,90 205,91 206,92 207,93 208,94 209,95 210,94 211,95 212,94 213,93 214,94 215,93 216,92 217,93 218,94 219,93 220,94 221,95 222,96 223,97 224,96 225,95 226,96 227,97 228,98 229,99 230,100 231,101 232,102 233,101 234,102 235,103 236,104 237,103 238,104 239,103 240,104 241,103 242,104 243,103 244,102 245,101 246,100 247,99 248,98 249,97 250,98 251,97 252,96 253,97 254,98 255,97 256,96 257,97 258,96 259,95 260,94 261,93 262,94 263,95 264,96 265,97 266,96 267,97 268,98 269,97 270,96 271,97 272,98 273,99 274,100 275,101 276,100 277,101 278,100 279,101 280,102 281,103 282,104 283,103 284,102 285,101 286,100 287,99 288,98 289,97 290,98 291,99 292,98 293,97 294,98 295,99 296,98 297,97 298,98 299,99 300,98 301,99 302,100 303,101 304,100 305,101 306,102 307,101 308,102 309,103 310,104 311,105 312,104 313,103 314,104 315,103 316,102 317,101 318,102 319,103 320,104 321,105 322,104 323,105 324,104 325,103 326,102 327,101 328,100 329,99 330,98 331,97 332,96 333,97 334,98 335,97 336,98 337,97 338,98 339,97 340,96 341,97 342,98 343,97 344,98 345,97 346,96 347,97 348,98 349,97 350,98 351,99 352,98 353,99 354,100 355,99 356,100 357,99 358,100 359,101 360,102 361,103 362,102 363,103 364,104 365,103 366,102 367,101 368,102 369,101 370,102 371,101 372,102 373,103 374,104 375,105 376,104 377,105 378,106 379,105 380,106 381,107 382,106 383,107 384,106 385,107 386,106 387,105 388,104 389,105 390,104 391,103 392,104 393,105 394,104 395,103 396,104 397,103 398,102 399,101 400,200 " style="fill:rgb(146,174,136);stroke:rgb(46,74,36)"></polygon></svg>